<svg id="visual" viewBox="0 0 3840 2160" width="3840" height="2160" xmlns="http://www.w3.org/2000/svg" xmlns:xlink="http://www.w3.org/1999/xlink" version="1.1"><rect x="0" y="0" width="3840" height="2160" fill="#ffffff"></rect><defs><linearGradient id="grad1_0" x1="43.8%" y1="0%" x2="100%" y2="100%"><stop offset="14.444444444444446%" stop-color="#5f71bd" stop-opacity="1"></stop><stop offset="85.55555555555554%" stop-color="#5f71bd" stop-opacity="1"></stop></linearGradient></defs><defs><linearGradient id="grad1_1" x1="43.8%" y1="0%" x2="100%" y2="100%"><stop offset="14.444444444444446%" stop-color="#5f71bd" stop-opacity="1"></stop><stop offset="85.55555555555554%" stop-color="#b1b5de" stop-opacity="1"></stop></linearGradient></defs><defs><linearGradient id="grad1_2" x1="43.8%" y1="0%" x2="100%" y2="100%"><stop offset="14.444444444444446%" stop-color="#ffffff" stop-opacity="1"></stop><stop offset="85.55555555555554%" stop-color="#b1b5de" stop-opacity="1"></stop></linearGradient></defs><defs><linearGradient id="grad2_0" x1="0%" y1="0%" x2="56.3%" y2="100%"><stop offset="14.444444444444446%" stop-color="#5f71bd" stop-opacity="1"></stop><stop offset="85.55555555555554%" stop-color="#5f71bd" stop-opacity="1"></stop></linearGradient></defs><defs><linearGradient id="grad2_1" x1="0%" y1="0%" x2="56.3%" y2="100%"><stop offset="14.444444444444446%" stop-color="#b1b5de" stop-opacity="1"></stop><stop offset="85.55555555555554%" stop-color="#5f71bd" stop-opacity="1"></stop></linearGradient></defs><defs><linearGradient id="grad2_2" x1="0%" y1="0%" x2="56.3%" y2="100%"><stop offset="14.444444444444446%" stop-color="#b1b5de" stop-opacity="1"></stop><stop offset="85.55555555555554%" stop-color="#ffffff" stop-opacity="1"></stop></linearGradient></defs><g transform="translate(3840, 0)"><path d="M0 1512C-138.9 1406.7 -277.8 1301.4 -398.3 1225.9C-518.8 1150.4 -620.9 1104.8 -775.3 1067.1C-929.6 1029.4 -1136.2 999.6 -1223.2 888.7C-1310.2 777.9 -1277.6 585.9 -1305.8 424.3C-1334 262.6 -1423 131.3 -1512 0L0 0Z" fill="#d8d9ef"></path><path d="M0 1008C-92.6 937.8 -185.2 867.6 -265.5 817.3C-345.9 767 -414 736.5 -516.9 711.4C-619.8 686.3 -757.5 666.4 -815.5 592.5C-873.5 518.6 -851.7 390.6 -870.5 282.9C-889.3 175.1 -948.7 87.5 -1008 0L0 0Z" fill="#8a92ce"></path><path d="M0 504C-46.3 468.9 -92.6 433.8 -132.8 408.6C-172.9 383.5 -207 368.3 -258.4 355.7C-309.9 343.1 -378.7 333.2 -407.7 296.2C-436.7 259.3 -425.9 195.3 -435.3 141.4C-444.7 87.5 -474.3 43.8 -504 0L0 0Z" fill="#5f71bd"></path></g><g transform="translate(0, 2160)"><path d="M0 -1512C130.3 -1378.6 260.6 -1245.2 380.4 -1170.8C500.2 -1096.3 609.4 -1080.7 767.6 -1056.6C925.9 -1032.5 1133.3 -999.8 1223.2 -888.7C1313.2 -777.7 1285.8 -588.2 1314.4 -427.1C1342.9 -265.9 1427.5 -132.9 1512 0L0 0Z" fill="#d8d9ef"></path><path d="M0 -1008C86.9 -919.1 173.8 -830.2 253.6 -780.5C333.4 -730.8 406.2 -720.5 511.8 -704.4C617.3 -688.3 755.5 -666.5 815.5 -592.5C875.5 -518.5 857.2 -392.2 876.2 -284.7C895.3 -177.3 951.6 -88.6 1008 0L0 0Z" fill="#8a92ce"></path><path d="M0 -504C43.4 -459.5 86.9 -415.1 126.8 -390.3C166.7 -365.4 203.1 -360.2 255.9 -352.2C308.6 -344.2 377.8 -333.3 407.7 -296.2C437.7 -259.2 428.6 -196.1 438.1 -142.4C447.6 -88.6 475.8 -44.3 504 0L0 0Z" fill="#5f71bd"></path></g></svg>